<svg id="eNnQVL1Dy2x1" xmlns="http://www.w3.org/2000/svg" xmlns:xlink="http://www.w3.org/1999/xlink"
 viewBox="0 0 300 300" shape-rendering="geometricPrecision" text-rendering="geometricPrecision" 
 project-id="b909ccc100e34f41927fb61c03d8c7e2" export-id="e01cfae7957c4040af0f6229a942ebf1" cached="false"><rect width="23.282826" height="7.275592" 
 rx="0" ry="0" transform="matrix(.706076-.637848 0.751268 0.831628 218.449653 83.727076)" fill="#9d79da" stroke-width="0"/><rect width="23.282826" height="7.275592" 
 rx="0" ry="0" transform="matrix(.361847-.880034 1.036519 0.42619 102.826875 264.013838)" fill="#9d79da" stroke-width="0"/><rect width="23.282826" height="7.275592" 
 rx="0" ry="0" transform="matrix(-.538924-.784191 0.923632-.634754 212.684169 264.013838)" fill="#9d79da" stroke-width="0"/><rect width="23.282826" height="7.275592" rx="0" ry="0" transform="matrix(-.735434-.603764 0.682736-.831628 87.873206 92.406167)" fill="#9d79da" stroke-width="0"/><rect width="40.931256" height="12.434812" rx="0" ry="0" transform="matrix(1 0 0 1.583332 135.779598 40.707718)" fill="#9d79da" stroke-width="0"/><ellipse rx="137.5" ry="137.5" transform="matrix(.706154 0 0 0.758667 156.245226 158.741429)" fill="#5f8fed" stroke-width="0"/><ellipse rx="90.730081" ry="90.181126" transform="matrix(.929483 0 0 1.016458 155.082312 160.085418)" fill="#57470a" stroke="#57470a"/><ellipse rx="99.07554" ry="69.282822" transform="matrix(.814321 0 0 1.243125 156.245227 158.741428)" fill="#fff" stroke-width="0"/><ellipse rx="11.799451" ry="12.899543" transform="translate(156.245226 158.741428)" fill="#ef827d" stroke-width="0"/><line x1="-13.5734" y1="0" x2="13.5734" y2="0" transform="translate(181.618078 158.741428)" fill="none" stroke="#3f5787" stroke-width="3"/><line x1="0" y1="19.171808" x2="0" y2="-19.171807" transform="translate(156.245226 126.670077)" fill="none" stroke="#3f5787" stroke-width="3"/><line x1="0" y1="-7.275592" x2="0" y2="7.275592" transform="translate(156.245226 79.889812)" fill="none" stroke="#3f5787" stroke-width="3"/><line x1="-11.172944" y1="0" x2="11.172945" y2="0" transform="translate(225.751575 158.741428)" fill="none" stroke="#3f5787" stroke-width="3"/><line x1="0" y1="-6.74087" x2="0" y2="6.74087" transform="translate(156.245226 238.127767)" fill="none" stroke="#3f5787" stroke-width="3"/><line x1="-12.290608" y1="0" x2="12.290609" y2="0" transform="translate(87.856541 158.741428)" fill="none" stroke="#3f5787" stroke-width="3"/><line x1="5.437859" y1="-6.147145" x2="-5.43786" y2="6.147146" transform="translate(196.373622 93.312549)" fill="none" stroke="#3f5787" stroke-width="3"/><line x1="-5.586472" y1="3.108703" x2="5.586472" y2="-3.108703" transform="translate(220.165103 115.834699)" fill="none" stroke="#3f5787" stroke-width="3"/><line x1="-7.99063" y1="-3.885879" x2="7.990631" y2="3.885878" transform="translate(217.760945 201.064973)" fill="none" stroke="#3f5787" stroke-width="3"/><line x1="5.437859" y1="5.446266" x2="-5.43786" y2="-5.446265" transform="translate(196.373622 225.940632)" fill="none" stroke="#3f5787" stroke-width="3"/><line x1="-10.362343" y1="4.663055" x2="10.362344" y2="-4.663054" transform="translate(92.157716 192.516039)" fill="none" stroke="#3f5787" stroke-width="3"/><line x1="-4.922113" y1="5.446265" x2="4.922113" y2="-5.446265" transform="translate(115.732048 225.940632)" fill="none" stroke="#3f5787" stroke-width="3"/><line x1="-8.367994" y1="-3.108703" x2="8.367994" y2="3.108703" transform="translate(96.224535 115.834699)" fill="none" stroke="#3f5787" stroke-width="3"/><line x1="-4.922113" y1="-6.147145" x2="4.922113" y2="6.147146" transform="translate(115.732048 93.312549)" fill="none" stroke="#3f5787" stroke-width="3"/><line x1="-0.259058" y1="0" x2="0.259059" y2="0" transform="translate(316.761509 118.943402)" fill="none" stroke="#3f5787" stroke-width="3"/><line x1="-16.456497" y1="19.53177" x2="16.456497" y2="-19.53177" transform="translate(73.900363 79.927925)" fill="none" stroke="#e6c068" stroke-width="3"/><line x1="-16.079394" y1="-16.005006" x2="16.079394" y2="16.005006" transform="translate(237.262007 76.401161)" fill="none" stroke="#e6c068" stroke-width="3"/><path d="M87.49466,62.98675c-7.80604-19.51512-58.0166-20.04261-45.07619,15.54352c2.88294,7.92807,6.03542,13.67273,13.47105,18.1341" transform="translate(.378546 0.838218)" fill="#e6c068" stroke="#e6c068" stroke-width="0.6"/><path d="M220.13266,62.46863c41.68554-52.1069,73.34721,13.97571,33.1595,30.0508" transform="translate(.000001 0)" fill="#e6c068" stroke="#e6c068" stroke-width="0.6"/><ellipse rx="3.384193" ry="2.985719" transform="translate(44.215447 57.410435)" fill="#57470a" stroke="#57470a"/><ellipse rx="2.590586" ry="3.115617" transform="translate(264.690733 47.436319)" fill="#57470a" stroke="#57470a"/></svg>
