<?xml version="1.0" standalone="no"?>
<!DOCTYPE svg PUBLIC "-//W3C//DTD SVG 20010904//EN"
 "http://www.w3.org/TR/2001/REC-SVG-20010904/DTD/svg10.dtd">
<svg version="1.0" xmlns="http://www.w3.org/2000/svg"
 width="383.000000pt" height="561.000000pt" viewBox="0 0 383.000000 561.000000"
 preserveAspectRatio="xMidYMid meet">

<g transform="translate(0.000000,561.000000) scale(0.100000,-0.100000)"
fill="#000000" stroke="none">
<path d="M0 2805 c0 -2487 2 -2805 15 -2805 13 0 15 318 15 2805 0 2487 -2
2805 -15 2805 -13 0 -15 -318 -15 -2805z"/>
<path d="M130 2860 l0 -2749 1835 1 1835 2 0 68 c0 49 -4 68 -13 68 -19 0
-126 83 -127 98 0 7 30 -11 67 -39 45 -35 69 -47 72 -38 2 7 -1 15 -8 17 -6 2
-9 7 -6 12 3 4 -8 13 -24 20 -16 6 -31 20 -34 31 -4 13 -13 18 -28 17 -15 -2
-24 3 -27 15 -5 25 13 21 74 -14 l54 -30 0 2635 0 2636 -1835 0 -1835 0 0
-2750z m1724 2433 c-19 -31 -40 -64 -167 -263 -47 -74 -105 -171 -128 -214
-38 -71 -40 -79 -21 -74 19 5 17 0 -14 -56 -60 -105 -165 -318 -160 -323 2 -2
55 22 116 54 112 58 112 58 134 113 53 133 188 317 309 422 l69 59 56 -7 c36
-4 65 -14 79 -26 16 -15 29 -19 49 -14 l27 7 -6 -75 c-3 -41 -9 -82 -14 -91
-9 -15 -11 -15 -23 0 -11 14 -15 11 -30 -22 -23 -49 -47 -80 -55 -71 -4 3 1
20 9 37 24 45 19 51 -8 9 -30 -50 -56 -78 -73 -78 -8 0 0 20 23 55 63 94 56
178 -13 160 -54 -13 -168 -165 -260 -345 -61 -121 -91 -208 -94 -278 -5 -110
37 -95 128 45 34 52 38 62 24 65 -16 3 -16 6 -4 36 l13 32 85 0 c47 0 85 -3
85 -6 0 -3 -16 -42 -36 -87 -58 -132 -154 -399 -154 -429 0 -14 121 99 138
129 7 13 40 104 73 203 58 174 103 284 129 315 10 12 9 15 -8 15 -41 0 -31 19
20 39 41 15 47 20 28 21 -22 1 -20 4 15 21 72 34 245 21 300 -23 30 -23 28
-53 -7 -122 -27 -53 -152 -175 -226 -221 -48 -29 -62 -44 -70 -73 -16 -57
-112 -385 -118 -405 -5 -16 -3 -17 15 -8 12 7 21 8 21 3 0 -5 -15 -71 -34
-148 -42 -168 -45 -190 -28 -186 15 3 15 0 -3 -90 -10 -47 -15 -113 -13 -179
l3 -104 38 120 c46 144 94 267 154 393 24 52 42 97 39 100 -4 3 -23 -2 -42
-12 -20 -9 -38 -15 -40 -13 -8 8 60 163 94 217 67 106 234 341 289 408 125
150 297 307 329 300 12 -2 -5 -28 -70 -100 -76 -86 -102 -128 -78 -128 4 0 19
8 32 17 17 12 9 -3 -25 -47 -27 -36 -57 -73 -67 -83 -10 -10 -18 -23 -18 -30
0 -6 41 29 90 78 50 49 90 86 90 82 0 -13 -50 -82 -56 -78 -7 3 -55 -50 -232
-259 -59 -69 -119 -138 -134 -155 -33 -36 -82 -124 -74 -132 3 -4 17 -1 31 5
14 6 25 10 25 8 0 -2 -29 -51 -65 -109 -115 -188 -249 -476 -296 -634 -7 -24
-15 -43 -19 -43 -12 0 -20 114 -20 272 0 147 0 149 -21 143 -17 -6 -20 -4 -15
12 5 17 46 276 46 294 0 18 -15 8 -35 -21 -11 -16 -23 -30 -27 -30 -9 0 37
164 94 330 59 175 72 219 66 226 -3 2 -17 -1 -31 -7 -20 -9 -32 -28 -48 -78
-12 -36 -44 -120 -72 -186 -51 -125 -92 -244 -132 -380 l-23 -80 -8 40 c-8 42
10 124 68 314 15 52 26 97 22 100 -7 7 -79 -73 -102 -114 l-17 -30 -3 53 c-2
37 -7 52 -17 52 -12 0 -9 14 12 68 41 105 74 205 70 215 -1 5 -15 -9 -30 -32
-15 -23 -25 -46 -22 -51 3 -5 -14 -20 -37 -34 -57 -33 -121 -31 -150 5 -16 20
-16 17 3 -16 l23 -40 -22 19 c-12 11 -22 14 -22 8 0 -35 103 -58 136 -32 8 7
17 11 19 8 3 -3 -2 -11 -11 -19 -16 -13 -72 -15 -119 -5 -11 2 -23 5 -28 5 -4
1 -21 22 -37 48 -34 53 -38 101 -19 210 6 35 8 67 5 71 -4 3 -21 0 -39 -6 -18
-7 -49 -15 -71 -17 -21 -3 -65 -18 -97 -34 -32 -16 -59 -28 -59 -25 0 2 12 34
26 71 33 88 74 211 74 224 0 6 11 25 24 42 41 55 110 204 196 422 46 116 86
213 89 216 11 11 63 20 57 10 -9 -15 31 -1 88 30 28 16 53 29 55 29 2 0 -5
-12 -15 -27z m-729 -82 c89 -41 132 -82 150 -143 13 -44 12 -53 -5 -103 -10
-30 -15 -55 -11 -55 5 0 12 12 16 27 14 58 87 233 102 245 15 12 15 10 4 -9
-6 -13 -9 -23 -6 -23 8 0 47 23 68 39 13 11 17 11 17 1 0 -10 3 -10 15 0 31
26 23 0 -39 -126 -73 -149 -135 -302 -138 -342 -1 -15 -14 -49 -29 -77 -15
-27 -44 -99 -64 -159 -20 -60 -50 -139 -66 -177 -16 -37 -29 -71 -29 -74 0
-16 22 10 41 48 33 65 153 241 156 230 4 -10 -27 -67 -122 -223 -32 -52 -67
-116 -78 -142 -11 -27 -21 -47 -23 -45 -2 1 3 27 11 57 8 30 15 56 15 58 0 1
-6 2 -14 2 -7 0 -28 -31 -45 -70 -48 -103 -54 -94 -16 22 61 185 118 388 111
395 -9 9 -69 -51 -197 -195 -113 -129 -186 -228 -259 -350 -23 -40 -45 -71
-47 -68 -31 31 178 311 411 550 l107 110 31 100 c17 56 37 110 44 121 27 38
13 34 -30 -10 -69 -69 -217 -134 -391 -172 -35 -8 -42 -14 -56 -53 -20 -54
-61 -241 -54 -248 2 -3 12 1 21 9 15 12 16 12 11 -6 -43 -142 -102 -354 -113
-404 -14 -67 -23 -87 -25 -55 0 14 -4 11 -14 -11 -24 -52 -18 2 20 170 17 74
51 270 60 348 8 63 -4 77 -25 27 -19 -46 -24 -28 -11 37 6 32 18 96 26 143 9
47 24 126 35 175 17 80 29 171 44 343 3 33 1 52 -6 52 -7 0 -6 5 2 15 11 13 8
15 -16 15 -49 0 -5 20 46 20 25 1 63 5 85 10 22 5 78 8 125 6 72 -2 96 -7 155
-35z m1654 -913 c-7 -13 -43 -79 -81 -148 -89 -161 -137 -264 -147 -317 -5
-24 -7 -43 -6 -43 1 0 46 49 99 110 137 156 406 390 448 390 8 0 19 5 26 12
25 25 10 -4 -46 -94 -32 -51 -103 -167 -157 -258 -54 -91 -122 -201 -151 -246
-111 -170 -274 -476 -274 -515 0 -16 44 23 285 255 121 116 280 269 355 340
74 72 188 182 252 245 106 104 210 182 225 168 10 -11 -86 -195 -173 -332 -50
-77 -105 -167 -124 -200 -69 -124 -260 -434 -385 -625 -87 -134 -147 -237
-260 -450 -54 -102 -113 -210 -131 -240 -50 -86 -157 -313 -214 -458 -29 -73
-54 -131 -55 -130 -3 3 57 227 70 263 6 15 5 17 -3 10 -16 -15 -68 -170 -76
-227 -4 -26 -12 -51 -18 -54 -12 -8 -5 169 8 215 5 18 4 23 -7 19 -13 -4 -42
-128 -29 -128 8 0 1 -99 -11 -155 -7 -32 -8 -24 -5 38 2 42 2 77 0 77 -1 0 -7
-21 -14 -47 -6 -27 -15 -61 -20 -78 l-8 -30 -1 32 c-2 64 70 354 114 457 7 17
35 87 61 156 107 282 181 420 407 757 116 173 280 424 285 435 17 38 -63 -35
-314 -287 -162 -162 -294 -288 -294 -280 0 18 -12 19 -28 3 -9 -9 -12 -9 -12
0 0 12 60 189 109 319 37 101 211 441 257 504 39 53 46 83 13 53 -85 -76 -380
-517 -459 -687 -21 -45 -42 -94 -45 -110 -4 -15 -16 -32 -26 -38 -11 -5 -32
-35 -49 -67 -36 -70 -37 -60 -6 38 80 251 136 391 234 587 34 67 80 173 103
235 57 155 161 363 247 496 35 53 52 70 31 30z m-1079 -248 c-20 -13 -60 -13
-60 0 0 6 17 10 38 10 27 0 33 -3 22 -10z m-170 -765 l13 -90 60 -44 c64 -48
63 -59 -10 -60 -36 -1 -35 1 -51 -111 -6 -49 -10 -60 -17 -45 -18 42 -80 145
-87 145 -5 0 -29 -19 -54 -42 l-46 -42 7 39 c4 22 14 67 22 99 l14 59 -55 55
c-31 31 -54 57 -53 59 2 2 28 -1 57 -7 82 -15 95 -13 109 18 7 15 24 47 39 72
l26 45 7 -30 c4 -17 12 -70 19 -120z m1824 -251 c3 -8 2 -12 -4 -9 -6 3 -10
10 -10 16 0 14 7 11 14 -7z m-179 -244 c10 -11 14 -20 9 -20 -12 1 -44 25 -44
34 0 12 17 6 35 -14z m-1077 -275 l173 -87 -44 -47 c-24 -26 -46 -53 -49 -61
-3 -11 -29 -3 -109 33 -58 26 -107 47 -110 47 -14 0 -6 -340 14 -549 2 -21 -5
-26 -47 -38 -26 -8 -49 -13 -51 -11 -1 2 -14 87 -28 189 -30 207 -44 439 -33
542 12 112 31 110 284 -18z m-485 -114 c20 -18 37 -37 37 -41 0 -5 -18 -11
-41 -15 -37 -6 -43 -11 -61 -56 -11 -27 -24 -46 -28 -44 -5 3 -11 23 -15 46
-7 39 -8 40 -38 33 -18 -3 -47 -12 -64 -20 -18 -7 -33 -11 -33 -8 0 2 11 27
25 54 l25 49 -20 43 c-30 66 -26 72 29 43 l50 -25 43 62 43 61 5 -75 c5 -71 7
-76 43 -107z m1658 165 c70 -21 102 -40 141 -84 47 -52 59 -75 63 -122 2 -21
13 -65 25 -99 11 -33 20 -71 20 -84 0 -13 9 -49 19 -80 11 -32 18 -57 15 -57
-2 0 -25 13 -52 30 -26 16 -48 25 -50 20 -2 -5 4 -29 12 -55 9 -25 16 -67 16
-93 l0 -47 -27 38 c-14 20 -32 37 -40 37 -7 0 -16 7 -19 15 -12 29 -21 14 -27
-43 -8 -71 -32 -150 -58 -182 l-19 -25 0 50 c0 55 -30 147 -50 153 -9 3 -11
-1 -7 -13 4 -9 9 -35 12 -58 3 -23 8 -55 10 -71 5 -28 4 -28 -35 15 -21 24
-39 47 -40 51 0 14 -112 138 -123 138 -3 0 -7 -21 -9 -47 l-3 -47 -49 52 c-55
58 -65 56 -66 -13 l-1 -40 -34 72 c-55 116 -75 109 -75 -27 l0 -85 -25 37
c-14 20 -25 42 -25 47 0 27 -19 7 -25 -26 -7 -35 -8 -36 -16 -15 -5 13 -6 28
-3 34 11 18 13 108 3 108 -6 0 -15 -14 -21 -31 -6 -16 -12 -28 -15 -26 -2 2 5
29 16 58 28 75 35 141 22 182 -16 48 -40 55 -68 22 -16 -18 -23 -21 -23 -11 0
19 -21 21 -39 4 -20 -19 6 31 30 57 10 11 22 32 28 47 10 27 10 28 -25 23 -19
-2 -39 -7 -44 -10 -6 -3 -10 -3 -10 2 0 10 99 53 122 53 27 0 31 18 10 48 -26
38 -35 65 -20 58 82 -33 103 -32 258 23 72 26 100 31 180 31 53 0 115 -6 141
-14z m-941 -160 c0 -8 -18 -58 -40 -112 -22 -54 -40 -99 -40 -101 0 -10 -42
-1 -46 10 -8 22 34 121 72 171 35 47 54 58 54 32z m240 -149 c0 -7 -5 -32 -11
-56 -13 -57 3 -76 25 -32 17 31 33 43 23 16 -4 -8 -1 -42 5 -75 7 -44 7 -64
-1 -74 -23 -28 16 -132 61 -164 10 -7 18 -19 18 -25 1 -55 120 -206 192 -243
51 -26 145 -23 193 6 l39 24 -31 -45 c-53 -74 -126 -147 -165 -164 -21 -8 -37
-20 -35 -26 6 -31 -26 -12 -95 55 -79 76 -130 104 -238 127 -25 5 -60 19 -78
29 -29 18 -32 25 -32 66 0 41 14 233 24 327 3 29 -1 42 -16 57 -21 19 -21 19
-2 62 11 24 34 71 52 106 29 56 35 61 52 52 11 -6 20 -16 20 -23z m144 -49 c6
-27 -6 -39 -19 -18 -11 18 -26 10 -20 -10 5 -14 2 -20 -9 -20 -12 0 -16 -11
-17 -37 -1 -26 -3 -31 -6 -14 -7 36 5 86 29 116 22 29 32 25 42 -17z m-1623
-96 l23 -54 63 7 c35 4 63 3 63 0 0 -4 -13 -23 -30 -42 -35 -39 -36 -53 -10
-110 22 -49 16 -53 -43 -28 -20 8 -39 15 -41 15 -3 0 -17 -21 -30 -47 -26 -52
-27 -52 -50 29 -11 37 -20 46 -62 67 l-49 24 46 19 46 19 7 71 c3 39 9 82 12
95 6 22 7 23 19 6 6 -10 23 -42 36 -71z m329 53 c0 -9 11 -27 24 -40 l24 -24
-24 -16 c-15 -10 -24 -25 -24 -42 0 -25 -1 -25 -18 -10 -10 10 -22 17 -27 17
-5 0 -17 -7 -27 -17 -17 -15 -18 -14 -18 20 0 20 -4 39 -10 42 -20 12 -9 25
20 25 23 0 33 7 45 30 17 32 35 40 35 15z m1290 -29 c0 -18 -24 -65 -31 -60
-13 8 -11 38 3 52 11 11 28 16 28 8z m-941 -17 c17 -6 31 -18 31 -26 0 -12 -3
-12 -22 1 -12 9 -33 16 -46 16 -13 0 -20 4 -17 10 8 13 15 13 54 -1z m1129
-279 c14 -26 32 -42 50 -46 15 -4 30 -11 33 -17 4 -5 15 -5 28 2 23 13 29 33
9 30 -7 -1 -24 0 -38 1 -19 2 -21 3 -7 7 13 3 17 11 14 24 -4 15 -1 19 11 15
54 -15 82 -17 82 -5 0 6 10 0 21 -15 12 -15 20 -28 18 -30 -2 -1 -19 -8 -36
-15 -56 -22 -26 -31 34 -10 31 11 61 18 67 16 15 -5 -57 -46 -93 -53 -38 -8
-40 -19 -3 -32 l27 -10 -50 -22 c-56 -24 -130 -29 -165 -10 -68 36 -120 83
-120 107 0 13 4 22 10 18 5 -3 7 -11 4 -18 -7 -18 67 -57 109 -57 20 0 45 8
58 20 l24 19 -43 1 c-68 0 -82 12 -82 70 0 28 3 50 8 50 4 0 17 -18 30 -40z
m37 3 l18 -28 -21 19 c-12 11 -22 23 -22 28 0 14 7 9 25 -19z m-847 -95 c18
-15 32 -32 32 -39 0 -23 -109 95 -115 126 -7 27 -4 25 22 -15 16 -25 44 -57
61 -72z m1057 72 c3 -5 1 -10 -4 -10 -6 0 -11 5 -11 10 0 6 2 10 4 10 3 0 8
-4 11 -10z m-1165 -40 c0 -15 -94 -40 -102 -26 -5 7 9 15 40 22 63 15 62 15
62 4z m-464 -8 c8 -5 3 -47 -17 -145 -15 -76 -30 -141 -33 -144 -8 -9 -54 24
-71 51 -14 20 -14 34 -4 90 12 73 30 101 71 110 26 6 26 5 21 -37 -7 -59 -33
-151 -45 -158 -7 -5 -7 -13 0 -24 9 -17 10 -17 19 1 5 10 15 46 22 79 7 33 17
79 23 102 15 61 8 73 -39 62 -53 -12 -61 -11 -39 6 21 16 73 20 92 7z m99 -43
c26 -12 31 -18 15 -14 -14 2 -35 5 -46 5 -12 0 -24 7 -28 15 -7 20 10 18 59
-6z m373 -1 c-2 -18 -12 -24 -47 -31 -27 -5 -47 -5 -53 1 -16 16 0 32 30 32
15 0 34 5 42 10 24 15 32 12 28 -12z m-288 -8 c4 7 15 10 25 7 9 -4 13 -11 10
-17 -3 -5 0 -10 7 -11 7 0 4 -4 -7 -8 -12 -5 -23 -4 -27 3 -4 6 -10 7 -15 3
-9 -9 17 -28 29 -21 10 6 10 -7 0 -23 -5 -9 -16 -6 -41 9 -27 18 -30 23 -17
30 9 5 16 17 17 26 0 12 2 13 6 3 4 -10 7 -11 13 -1z m-111 -62 c19 -13 18
-14 -15 -14 -25 0 -33 4 -29 14 3 7 5 23 6 35 l0 22 9 -21 c5 -12 18 -28 29
-36z m401 12 c-14 -11 -41 -20 -62 -20 -43 0 -53 20 -10 21 15 0 36 4 47 9 37
16 51 11 25 -10z m1348 -15 c-1 -1 -14 -6 -28 -10 l-25 -7 25 27 c21 22 26 24
28 10 2 -9 2 -18 0 -20z m-1229 -1 c12 -15 21 -41 21 -60 0 -19 5 -34 10 -34
16 0 12 -76 -5 -90 -20 -17 -32 -4 -37 35 -3 27 -7 30 -38 30 -35 0 -35 -1
-38 -47 -3 -39 0 -49 18 -58 12 -7 33 -9 46 -6 33 9 30 -6 -7 -26 -43 -25 -61
-23 -96 15 -41 43 -54 71 -68 144 -11 61 -11 63 9 63 12 0 48 14 81 30 74 36
78 36 104 4z m346 -90 c135 -28 178 -48 228 -103 66 -73 106 -151 78 -151 -5
0 -22 21 -37 48 -66 113 -126 162 -201 162 -53 0 -158 35 -220 73 -64 38 -71
56 -9 21 25 -14 97 -36 161 -50z m-245 21 l-8 -40 -1 36 c0 20 2 39 6 42 11
11 11 4 3 -38z m-363 10 c54 -23 34 -27 -23 -5 -27 10 -41 19 -31 20 10 0 34
-7 54 -15z m-267 -15 l35 -20 -30 2 c-17 1 -36 -1 -43 -6 -8 -5 -12 1 -12 18
0 31 4 31 50 6z m110 10 c8 -5 11 -10 5 -10 -5 0 -17 5 -25 10 -8 5 -10 10 -5
10 6 0 17 -5 25 -10z m144 -49 c50 -19 67 -40 58 -73 -6 -23 -9 -22 -76 3 -64
23 -69 29 -60 64 7 30 14 31 78 6z m-280 -39 c-31 -4 -32 -35 -1 -50 18 -9 19
-11 4 -11 -10 -1 -27 4 -38 10 -19 10 -19 12 -5 34 9 14 16 31 16 40 0 14 3
14 24 -2 l24 -18 -24 -3z m116 28 c24 -15 7 -19 -20 -5 -15 8 -19 14 -10 14 8
1 22 -3 30 -9z m1632 -402 c2 -227 2 -414 2 -416 -1 -2 -31 19 -67 45 l-66 48
-1 337 c0 369 -1 359 60 373 16 4 32 11 35 16 4 5 13 9 20 9 12 0 15 -66 17
-412z m-1105 370 c-3 -8 -6 -5 -6 6 -1 11 2 17 5 13 3 -3 4 -12 1 -19z m-117
-8 c0 -5 -2 -10 -4 -10 -3 0 -8 5 -11 10 -3 6 -1 10 4 10 6 0 11 -4 11 -10z
m-10 -24 c0 -3 -4 -8 -10 -11 -5 -3 -10 -1 -10 4 0 6 5 11 10 11 6 0 10 -2 10
-4z m86 -53 c-7 -7 -36 16 -36 27 0 5 8 10 18 12 16 3 31 -27 18 -39z m99 8
c25 -21 64 -44 86 -50 42 -13 45 -17 25 -43 -14 -19 -46 -24 -46 -8 0 14 -48
32 -90 34 -31 1 -35 4 -42 41 -9 41 -5 65 11 65 5 0 30 -17 56 -39z m-650 19
c-3 -5 -12 -10 -18 -10 -7 0 -6 4 3 10 19 12 23 12 15 0z m185 -20 c8 -5 15
-15 15 -22 0 -7 9 -14 20 -16 17 -3 18 -1 5 8 -13 10 -13 11 2 7 9 -3 19 -1
21 6 2 7 3 -3 2 -21 -1 -18 -5 -35 -8 -39 -7 -6 -80 22 -104 40 -13 10 -6 40
8 31 5 -3 9 0 9 5 0 13 10 14 30 1z m-200 -47 c41 -19 84 -42 95 -51 45 -39
194 -98 220 -88 7 2 18 21 25 40 6 20 16 36 21 36 5 0 53 -24 106 -54 88 -48
98 -57 99 -83 1 -41 31 -83 60 -83 19 0 24 -5 24 -26 0 -14 -5 -35 -11 -46 -9
-17 -17 -19 -52 -14 -23 4 -62 18 -87 32 -64 36 -117 43 -247 32 -63 -5 -118
-6 -121 -2 -4 4 -1 9 6 11 18 7 15 73 -5 95 -22 24 -69 24 -83 -1 -7 -14 -6
-29 5 -55 19 -46 7 -47 -60 -4 -48 30 -49 32 -25 38 36 8 41 69 9 99 -13 12
-28 21 -35 21 -22 0 -46 -32 -41 -56 2 -14 0 -21 -6 -17 -12 8 -59 114 -53
121 3 2 10 -7 16 -22 8 -22 15 -27 38 -24 15 2 27 8 27 13 1 6 4 20 9 32 17
51 -45 93 -86 57 -20 -19 -21 -19 -13 6 15 50 43 48 165 -7z m1516 -88 c-1
-143 10 -129 -111 -140 l-70 -7 27 29 c16 16 51 37 79 47 33 12 48 23 45 32
-3 7 0 15 7 17 7 2 9 8 5 12 -5 5 -19 3 -33 -3 -14 -6 -25 -10 -25 -7 0 2 16
31 35 64 19 32 35 64 35 70 0 6 1 11 3 11 2 0 3 -56 3 -125z m-1449 93 c-3 -8
-6 -5 -6 6 -1 11 2 17 5 13 3 -3 4 -12 1 -19z m-320 -8 c1 -11 -2 -18 -8 -15
-11 7 -12 35 -1 35 4 0 8 -9 9 -20z m821 -13 c5 -37 -15 -34 -20 3 -3 19 -1
29 6 27 6 -2 12 -16 14 -30z m-28 -39 c33 -17 57 -35 54 -40 -6 -9 -124 52
-124 65 0 12 8 9 70 -25z m-128 6 c76 -28 178 -78 178 -87 0 -5 -3 -7 -7 -5
-8 4 -46 22 -163 76 -71 33 -75 41 -8 16z m-159 -39 c-3 -9 -8 -14 -10 -11 -3
3 -2 9 2 15 9 16 15 13 8 -4z m1097 -35 c-6 -11 -16 -20 -22 -20 -6 0 -3 9 7
20 10 11 20 20 22 20 2 0 -1 -9 -7 -20z m716 -124 c36 -24 34 -36 -13 -50 -14
-5 -27 -22 -36 -49 -14 -44 -30 -52 -35 -17 -5 31 -27 35 -62 10 -33 -24 -35
-22 -19 33 9 32 7 41 -10 66 -12 16 -21 32 -21 36 0 3 22 5 49 4 45 -3 52 0
78 31 l28 34 3 -37 c3 -29 10 -42 38 -61z m-1338 -69 c0 -24 8 -61 17 -83 l16
-39 -23 22 c-17 18 -23 37 -26 89 -3 45 -1 65 6 60 6 -3 10 -26 10 -49z m-704
-133 c3 -9 6 -31 6 -50 0 -30 5 -37 33 -49 49 -20 50 -27 10 -49 -29 -17 -39
-30 -48 -63 -15 -60 -22 -62 -45 -7 -12 27 -23 50 -25 52 -2 3 -21 -10 -41
-27 -21 -17 -40 -29 -42 -26 -2 2 1 20 8 40 11 33 10 40 -14 76 l-26 39 53 0
c50 0 55 2 83 40 32 44 39 47 48 24z m834 -37 c15 -25 15 -28 -1 -44 -16 -16
-17 -16 -17 11 0 15 -5 37 -11 48 -17 31 9 18 29 -15z m758 -219 c-13 -41 -15
-60 -7 -81 6 -16 11 -45 11 -67 0 -29 6 -41 25 -54 41 -27 53 -21 64 37 6 28
12 65 14 82 1 19 8 31 20 33 15 3 17 -7 17 -97 0 -94 -1 -101 -20 -101 -11 0
-20 -4 -20 -10 0 -12 47 -13 54 -2 3 5 19 7 36 4 32 -5 33 -1 34 96 0 17 5 22
21 20 18 -3 20 -9 18 -60 -2 -69 -17 -103 -41 -92 -9 5 -42 8 -73 6 -50 -2
-60 1 -84 26 -15 15 -45 39 -67 53 l-39 26 -1 104 c0 58 4 117 11 133 11 27
13 28 28 14 14 -15 14 -21 -1 -70z m242 -15 c4 -26 -14 -30 -43 -10 -23 17
-11 39 18 35 14 -2 23 -11 25 -25z m-162 -117 c-6 -58 -8 -60 -36 -51 -20 6
-21 12 -16 47 4 22 11 49 17 60 9 16 13 17 26 6 12 -9 14 -24 9 -62z m-1586
-107 c9 -9 36 -19 58 -23 23 -3 42 -9 42 -13 0 -4 -10 -17 -22 -30 l-22 -23
23 -46 c12 -26 21 -48 19 -49 -2 -2 -21 5 -42 16 -22 10 -41 19 -42 19 -1 0
-12 -17 -24 -37 l-23 -38 -14 42 c-12 35 -21 44 -51 53 -20 6 -44 14 -52 16
-10 3 -1 13 25 28 23 13 39 29 37 37 -2 8 -1 38 3 68 l7 53 30 -28 c17 -16 39
-36 48 -45z m-763 -25 c46 -43 50 -45 91 -39 47 7 49 5 26 -31 -16 -24 -16
-26 27 -76 39 -46 40 -51 18 -45 -97 23 -97 23 -119 -29 -22 -50 -36 -50 -42
0 -3 27 -9 32 -61 47 -33 10 -61 20 -64 23 -3 2 14 14 37 26 29 15 40 26 36
38 -13 45 -18 132 -7 132 6 0 32 -21 58 -46z m2787 1 c25 -19 9 -19 -24 0 -14
8 -19 14 -10 14 8 0 24 -6 34 -14z m36 -259 c0 -2 -9 -2 -20 1 -11 3 -20 9
-20 15 0 5 9 4 20 -2 11 -6 20 -12 20 -14z"/>
<path d="M2228 4605 c-16 -9 -32 -32 -42 -57 -9 -24 -27 -74 -41 -112 -14 -37
-25 -73 -25 -78 0 -15 42 -2 125 37 91 43 145 100 145 151 0 62 -13 74 -78 74
-31 -1 -69 -7 -84 -15z"/>
<path d="M935 5113 c-56 -12 -75 -26 -84 -62 -13 -49 -39 -187 -44 -238 -6
-48 -2 -49 78 -34 22 4 52 3 67 -2 19 -6 36 -4 60 9 41 20 69 44 63 54 -2 4
10 20 28 36 l32 29 -29 -32 c-17 -18 -26 -33 -20 -33 13 1 38 22 57 50 10 14
17 18 17 10 0 -8 -12 -27 -27 -42 -15 -15 -22 -28 -17 -28 6 0 23 13 39 30 22
23 29 40 32 82 2 41 1 48 -7 33 -8 -16 -9 -12 -6 18 11 87 -38 128 -149 126
-38 -1 -79 -3 -90 -6z m75 -313 c-14 -11 -32 -19 -40 -19 -8 0 1 8 20 19 45
25 51 25 20 0z m-40 6 c0 -2 -7 -7 -16 -10 -8 -3 -12 -2 -9 4 6 10 25 14 25 6z"/>
<path d="M2342 2075 c-6 -14 -8 -25 -3 -25 8 0 23 41 17 47 -1 2 -8 -8 -14
-22z"/>
<path d="M2256 2033 c-6 -14 -5 -15 5 -6 7 7 10 15 7 18 -3 3 -9 -2 -12 -12z"/>
<path d="M2945 1680 c-4 -6 8 -10 29 -10 19 0 38 5 41 10 4 6 -8 10 -29 10
-19 0 -38 -4 -41 -10z"/>
<path d="M1596 1314 c-22 -22 -20 -47 7 -72 26 -25 75 -29 83 -8 7 19 -21 73
-45 86 -25 13 -27 13 -45 -6z"/>
<path d="M1791 1191 c-27 -20 -25 -54 3 -59 10 -2 27 -13 37 -23 27 -27 39
-16 39 35 0 65 -31 84 -79 47z"/>
</g>
</svg>
